<svg id="visual" viewBox="0 0 1901 376" width="1901" height="376" xmlns="http://www.w3.org/2000/svg" xmlns:xlink="http://www.w3.org/1999/xlink" version="1.1"><path d="M0 236L45.3 239.5C90.7 243 181.3 250 271.8 259.2C362.3 268.3 452.7 279.7 543.2 275.8C633.7 272 724.3 253 814.8 243.2C905.3 233.3 995.7 232.7 1086.2 243.5C1176.7 254.3 1267.3 276.7 1357.8 279.8C1448.3 283 1538.7 267 1629.2 259.7C1719.7 252.3 1810.3 253.7 1855.7 254.3L1901 255L1901 377L1855.7 377C1810.3 377 1719.7 377 1629.2 377C1538.7 377 1448.3 377 1357.8 377C1267.3 377 1176.7 377 1086.2 377C995.7 377 905.3 377 814.8 377C724.3 377 633.7 377 543.2 377C452.7 377 362.3 377 271.8 377C181.3 377 90.7 377 45.3 377L0 377Z" fill="#efd3c9"></path><path d="M0 308L45.3 307.7C90.7 307.3 181.3 306.7 271.8 306.7C362.3 306.7 452.7 307.3 543.2 305.3C633.7 303.3 724.3 298.7 814.8 295.3C905.3 292 995.7 290 1086.2 292C1176.7 294 1267.3 300 1357.8 308.3C1448.3 316.7 1538.7 327.3 1629.2 331.8C1719.7 336.3 1810.3 334.7 1855.7 333.8L1901 333L1901 377L1855.7 377C1810.3 377 1719.7 377 1629.2 377C1538.7 377 1448.3 377 1357.8 377C1267.3 377 1176.7 377 1086.2 377C995.7 377 905.3 377 814.8 377C724.3 377 633.7 377 543.2 377C452.7 377 362.3 377 271.8 377C181.3 377 90.7 377 45.3 377L0 377Z" fill="#ecbaba"></path></svg>