<svg id="visual" viewBox="0 0 480 315" width="480" height="315" xmlns="http://www.w3.org/2000/svg" xmlns:xlink="http://www.w3.org/1999/xlink" version="1.1"><rect x="0" y="0" width="480" height="315" fill="#f9eff8"></rect><path d="M0 211L8 211C16 211 32 211 48 220.2C64 229.3 80 247.7 96 253.3C112 259 128 252 144 247.7C160 243.3 176 241.7 192 234.2C208 226.7 224 213.3 240 206.2C256 199 272 198 288 206.7C304 215.3 320 233.7 336 231C352 228.3 368 204.7 384 193C400 181.3 416 181.7 432 187.5C448 193.3 464 204.7 472 210.3L480 216L480 316L472 316C464 316 448 316 432 316C416 316 400 316 384 316C368 316 352 316 336 316C320 316 304 316 288 316C272 316 256 316 240 316C224 316 208 316 192 316C176 316 160 316 144 316C128 316 112 316 96 316C80 316 64 316 48 316C32 316 16 316 8 316L0 316Z" fill="#ffffff" stroke-linecap="round" stroke-linejoin="miter"></path></svg>