<svg id="visual" viewBox="0 0 1600 467" width="1600" height="467" xmlns="http://www.w3.org/2000/svg" xmlns:xlink="http://www.w3.org/1999/xlink" version="1.1"><rect x="0" y="0" width="1600" height="467" fill="#f9eff8"></rect><path d="M0 313L26.7 313C53.3 313 106.7 313 160 326.7C213.3 340.3 266.7 367.7 320 376.2C373.3 384.7 426.7 374.3 480 367.8C533.3 361.3 586.7 358.7 640 347.5C693.3 336.3 746.7 316.7 800 306C853.3 295.3 906.7 293.7 960 306.7C1013.3 319.7 1066.7 347.3 1120 343.5C1173.3 339.7 1226.7 304.3 1280 287C1333.3 269.7 1386.7 270.3 1440 279C1493.3 287.7 1546.7 304.3 1573.3 312.7L1600 321L1600 468L1573.3 468C1546.7 468 1493.3 468 1440 468C1386.7 468 1333.3 468 1280 468C1226.7 468 1173.3 468 1120 468C1066.7 468 1013.3 468 960 468C906.7 468 853.3 468 800 468C746.7 468 693.3 468 640 468C586.7 468 533.3 468 480 468C426.7 468 373.3 468 320 468C266.7 468 213.3 468 160 468C106.7 468 53.3 468 26.7 468L0 468Z" fill="#ffffff" stroke-linecap="round" stroke-linejoin="miter"></path></svg>